<?xml version="1.0" encoding="utf-8"?>
<svg xmlns="http://www.w3.org/2000/svg" viewBox="0 0 500 500" xmlns:bx="https://boxy-svg.com" width="500px" height="500px"><defs><bx:export><bx:file format="svg"/></bx:export></defs><g transform="matrix(1, 0, 0, 1, 27.38181, 43.118424)"><g transform="matrix(1, 0, 0, 1, 6.772501, -19.23592)"><g transform="matrix(1, 0, 0, 1, -0.658524, 0)"><path style="stroke: rgb(0, 0, 0); fill: rgb(91, 134, 245); stroke-width: 0px;" d="M 143.552 255.927 C 143.867 318.053 144.348 403.737 144.348 403.737 C 190.058 403.138 234.374 403.935 234.374 403.935 C 233.909 363.072 234.839 309.184 234.839 309.184 C 171.725 273.379 156.36 237.878 143.552 255.927 Z"/><path style="stroke: rgb(0, 0, 0); transform-box: fill-box; transform-origin: 50% 50%; fill: rgb(91, 134, 245); stroke-width: 0px;" d="M 252.933 399.079 C 253.248 336.953 253.729 251.269 253.729 251.269 C 299.439 251.868 343.755 251.071 343.755 251.071 C 343.29 291.934 344.22 345.822 344.22 345.822 C 281.106 381.627 265.741 417.128 252.933 399.079 Z" transform="matrix(-1, 0, 0, -1, -0.000004, -0.000001)"/></g><path style="stroke: rgb(0, 0, 0); fill: rgb(91, 134, 245); stroke-width: 0px;" d="M 182.85 261.521 C 184.288 262.839 216.763 256.333 216.49 249.746 C 212.986 244.56 271.438 244.261 268.685 249.546 C 268.535 256.657 304.018 262.757 303.601 260.046 L 244.283 300 L 182.85 261.521 Z"/></g><path d="M 95.295 234.596 L 124.607 234.596 C 134.088 234.596 141.774 242.226 141.774 251.637 L 141.774 367.658 C 141.774 377.069 134.088 384.699 124.607 384.699 L 95.295 384.699 C 94.764 378.633 94.764 241.258 95.295 234.596 Z" style="stroke: rgb(0, 0, 0); fill: rgb(91, 134, 245); stroke-width: 0px;"/><path d="M 359.401 384.699 L 388.713 384.699 C 398.194 384.699 405.88 377.069 405.88 367.658 L 405.88 251.637 C 405.88 242.226 398.194 234.596 388.713 234.596 L 359.401 234.596 C 358.87 240.662 358.87 378.037 359.401 384.699 Z" style="stroke: rgb(0, 0, 0); fill: rgb(91, 134, 245); transform-box: fill-box; transform-origin: 50% 50%; stroke-width: 0px;" transform="matrix(-1, 0, 0, -1, 0.00001, 0.000017)"/></g><rect x="175.043" y="159.419" width="204.983" height="100.284" style="stroke: rgb(0, 0, 0); fill: rgb(91, 134, 245); stroke-width: 0px;" rx="21.978" ry="21.978"/><path d="M 169.138 181.898 C 169.454 191.835 169.867 220.504 169.138 237.208 C 152.244 237.753 137.037 224.827 137.037 209.553 C 137.037 194.28 151.409 181.898 169.138 181.898 Z" style="stroke: rgb(0, 0, 0); fill: rgb(91, 134, 245); stroke-width: 0px;"/><path d="M 418.098 237.224 C 418.414 227.287 418.827 198.618 418.098 181.914 C 401.204 181.369 385.997 194.295 385.997 209.569 C 385.997 224.842 400.369 237.224 418.098 237.224 Z" style="stroke: rgb(0, 0, 0); fill: rgb(91, 134, 245); transform-box: fill-box; transform-origin: 50% 50%; stroke-width: 0px; stroke-linejoin: round;" transform="matrix(-1, 0, 0, -1, -0.000062, -0.000018)"/><rect x="198.982" y="181.896" width="157.104" height="55.328" style="stroke: rgb(0, 0, 0); fill: rgb(255, 255, 255); stroke-width: 0px;" rx="15.573" ry="15.573"/><circle style="stroke: rgb(0, 0, 0); fill: rgb(91, 134, 245); stroke-width: 0px;" transform="matrix(0.365005, 0, 0, 0.365965, 28.919491, 143.001681)" cx="581.2" cy="178.2" r="36.41"/><circle style="stroke: rgb(0, 0, 0); fill: rgb(91, 134, 245); stroke-width: 0px;" transform="matrix(0.365005, 0, 0, 0.365965, 102.33983, 143.001681)" cx="581.2" cy="178.2" r="36.41"/><g transform="matrix(1, 0, 0, 1, 29.645535, 45.618043)" style=""><rect x="72.423" y="49.231" width="153.397" height="86.539" style="stroke: rgb(0, 0, 0); stroke-miterlimit: 5.82; fill: rgb(255, 255, 255); vector-effect: non-scaling-stroke; transform-box: fill-box; transform-origin: 54.4617% 45.787%; stroke-width: 7px; stroke-linejoin: round;" transform="matrix(0.960755, -0.277399, 1.679573, 0.555905, 88.95465, -5.651982)"/><g transform="matrix(1, 0, 0, 1, -3.766096, -1.015394)"><path style="stroke: rgb(0, 0, 0); stroke-miterlimit: 5.82; fill: rgb(255, 255, 255); stroke-width: 3px;" d="M 394.636 89.158 C 394.321 95.672 394.813 109.565 394.636 115.301"/><circle style="stroke: rgb(0, 0, 0); stroke-miterlimit: 5.82; stroke-width: 16.9056px; fill: rgb(255, 255, 255);" transform="matrix(0.058755, 0, 0, 0.059549, 348.846349, 96.447786)" cx="780" cy="373.4" r="56.8"/><path d="M 392.634 121.265 L 396.868 121.19 C 398.384 120.204 401.668 135.56 401.328 135.781 L 388.93 135.781 C 388.631 135.752 390.142 121.024 392.634 121.265 Z" style="stroke: rgb(0, 0, 0); stroke-miterlimit: 5.82; fill: rgb(255, 255, 255);"/></g></g></svg>