<?xml version="1.0" encoding="utf-8"?>
<svg xmlns="http://www.w3.org/2000/svg" viewBox="94.508 81.024 310.984 337.952" xmlns:bx="https://boxy-svg.com" width="310.984px" height="337.952px"><defs><bx:export><bx:file format="svg" path="logo.svg"/></bx:export></defs><g transform="matrix(1, 0, 0, 1, -19.685631, 7.074959)"><g transform="matrix(1, 0, 0, 1, 19.297253, 27.201577)"><g transform="matrix(1, 0, 0, 1, 6.772501, -19.23592)"><g transform="matrix(1, 0, 0, 1, -0.658524, 0)"><path style="stroke: rgb(0, 0, 0); fill: rgb(91, 134, 245); stroke-width: 0px;" d="M 143.552 255.927 C 143.867 318.053 144.348 403.737 144.348 403.737 C 190.058 403.138 234.374 403.935 234.374 403.935 C 233.909 363.072 234.839 309.184 234.839 309.184 C 171.725 273.379 156.36 237.878 143.552 255.927 Z"/><path style="stroke: rgb(0, 0, 0); fill: rgb(91, 134, 245); stroke-width: 0px;" d="M 252.933 399.079 C 253.248 336.953 253.729 251.269 253.729 251.269 C 299.439 251.868 343.755 251.071 343.755 251.071 C 343.29 291.934 344.22 345.822 344.22 345.822 C 281.106 381.627 265.741 417.128 252.933 399.079 Z" transform="matrix(-1, 0, 0, -1, 597.153011, 655.006164)"/></g><path style="stroke: rgb(0, 0, 0); fill: rgb(91, 134, 245); stroke-width: 0px;" d="M 182.85 261.521 C 184.288 262.839 216.763 256.333 216.49 249.746 C 212.986 244.56 271.438 244.261 268.685 249.546 C 268.535 256.657 304.018 262.757 303.601 260.046 L 244.283 300 L 182.85 261.521 Z"/></g><path d="M 95.295 234.596 L 124.607 234.596 C 134.088 234.596 141.774 242.226 141.774 251.637 L 141.774 367.658 C 141.774 377.069 134.088 384.699 124.607 384.699 L 95.295 384.699 C 94.764 378.633 94.764 241.258 95.295 234.596 Z" style="stroke: rgb(0, 0, 0); fill: rgb(91, 134, 245); stroke-width: 0px;"/><path d="M 359.401 384.699 L 388.713 384.699 C 398.194 384.699 405.88 377.069 405.88 367.658 L 405.88 251.637 C 405.88 242.226 398.194 234.596 388.713 234.596 L 359.401 234.596 C 358.87 240.662 358.87 378.037 359.401 384.699 Z" style="stroke: rgb(0, 0, 0); fill: rgb(91, 134, 245); stroke-width: 0px;" transform="matrix(-1, 0, 0, -1, 764.882761, 619.295)"/></g><rect x="166.958" y="143.502" width="204.983" height="100.284" style="stroke: rgb(0, 0, 0); fill: rgb(91, 134, 245); stroke-width: 0px;" rx="21.978" ry="21.978"/><path d="M 161.053 165.981 C 161.369 175.918 161.782 204.587 161.053 221.291 C 144.159 221.836 128.952 208.91 128.952 193.636 C 128.952 178.363 143.324 165.981 161.053 165.981 Z" style="stroke: rgb(0, 0, 0); fill: rgb(91, 134, 245); stroke-width: 0px;"/><path d="M 410.013 221.307 C 410.329 211.37 410.742 182.701 410.013 165.997 C 393.119 165.452 377.912 178.378 377.912 193.652 C 377.912 208.925 392.284 221.307 410.013 221.307 Z" style="stroke: rgb(0, 0, 0); fill: rgb(91, 134, 245); stroke-width: 0px; stroke-linejoin: round; transform-box: fill-box; transform-origin: 50% 50%;" transform="matrix(-1, 0, 0, -1, -0.000048, 0.000011)"/><rect x="190.897" y="165.979" width="157.104" height="55.328" style="stroke: rgb(0, 0, 0); fill: rgb(255, 255, 255); stroke-width: 0px;" rx="15.573" ry="15.573"/><circle style="stroke: rgb(0, 0, 0); fill: rgb(91, 134, 245); stroke-width: 0px;" transform="matrix(0.365005, 0, 0, 0.365965, 20.834942, 127.084841)" cx="581.2" cy="178.2" r="36.41"/><circle style="stroke: rgb(0, 0, 0); fill: rgb(91, 134, 245); stroke-width: 0px;" transform="matrix(0.365005, 0, 0, 0.365965, 94.255296, 127.084841)" cx="581.2" cy="178.2" r="36.41"/><g transform="matrix(1, 0, 0, 1, 21.560986, 29.701195)" style=""><path d="M 107.163 85.568 L 253.619 44.248 L 397.586 85.488 L 251.131 126.808 L 107.163 85.568 Z" style="stroke: rgb(0, 0, 0); stroke-miterlimit: 5.82; fill: rgb(255, 255, 255); stroke-linejoin: round; paint-order: fill; stroke-width: 3px;"/><g transform="matrix(1, 0, 0, 1, 0.632237, -3.802368)"><path style="stroke: rgb(0, 0, 0); stroke-miterlimit: 5.82; fill: rgb(255, 255, 255); stroke-width: 3px;" d="M 394.636 89.158 C 394.321 95.672 394.813 109.565 394.636 115.301"/><circle style="stroke: rgb(0, 0, 0); stroke-miterlimit: 5.82; stroke-width: 16.9056px; fill: rgb(255, 255, 255);" transform="matrix(0.058755, 0, 0, 0.059549, 348.846349, 96.447786)" cx="780" cy="373.4" r="56.8"/><path d="M 392.634 121.265 L 396.868 121.19 C 398.384 120.204 401.668 135.56 401.328 135.781 L 388.93 135.781 C 388.631 135.752 390.142 121.024 392.634 121.265 Z" style="stroke: rgb(0, 0, 0); stroke-miterlimit: 5.82; fill: rgb(255, 255, 255);"/></g></g></g></svg>